HIERARCHY
ROOT hip
{
  OFFSET 0 0 0
  CHANNELS 6 Xposition Yposition Zposition Zrotation Yrotation Xrotation
  JOINT abdomen
  {
    OFFSET 0 20.6881 -0.73152
    CHANNELS 3 Zrotation Xrotation Yrotation
    JOINT chest
    {
      OFFSET 0 11.7043 -0.48768
      CHANNELS 3 Zrotation Xrotation Yrotation
      JOINT neck
      {
        OFFSET 0 22.1894 -2.19456
        CHANNELS 3 Zrotation Xrotation Yrotation
        JOINT head
        {
          OFFSET -0.24384 7.07133 1.2192
          CHANNELS 3 Zrotation Xrotation Yrotation
          JOINT leftEye
          {
            OFFSET 4.14528 8.04674 8.04672
            CHANNELS 3 Zrotation Xrotation Yrotation
            End Site
            {
              OFFSET 1 0 0
            }
          }
          JOINT rightEye
          {
            OFFSET -3.6576 8.04674 8.04672
            CHANNELS 3 Zrotation Xrotation Yrotation
            End Site
            {
              OFFSET 1 0 0
            }
          }
        }
      }
      JOINT rCollar
      {
        OFFSET -2.68224 19.2634 -4.8768
        CHANNELS 3 Zrotation Xrotation Yrotation
        JOINT rShldr
        {
          OFFSET -8.77824 -1.95073 1.46304
          CHANNELS 3 Zrotation Xrotation Yrotation
          JOINT rForeArm
          {
            OFFSET -28.1742 -1.7115 0.48768
            CHANNELS 3 Zrotation Xrotation Yrotation
            JOINT rHand
            {
              OFFSET -22.5879 0.773209 7.07136
              CHANNELS 3 Zrotation Xrotation Yrotation
              JOINT rThumb1
              {
                OFFSET -1.2192 -0.487915 3.41376
                CHANNELS 3 Zrotation Xrotation Yrotation
                JOINT rThumb2
                {
                  OFFSET -3.37035 -0.52449 3.41376
                  CHANNELS 3 Zrotation Xrotation Yrotation
                  End Site
                  {
                    OFFSET -1.78271 -1.18214 1.43049
                  }
                }
              }
              JOINT rIndex1
              {
                OFFSET -7.75947 0.938293 5.60832
                CHANNELS 3 Zrotation Xrotation Yrotation
                JOINT rIndex2
                {
                  OFFSET -2.54057 -0.884171 1.56538
                  CHANNELS 3 Zrotation Xrotation Yrotation
                  End Site
                  {
                    OFFSET -1.62519 -0.234802 1.16502
                  }
                }
              }
              JOINT rMid1
              {
                OFFSET -8.24714 1.18213 3.41376
                CHANNELS 3 Zrotation Xrotation Yrotation
                JOINT rMid2
                {
                  OFFSET -3.10165 -0.590103 1.0647
                  CHANNELS 3 Zrotation Xrotation Yrotation
                  End Site
                  {
                    OFFSET -2.48547 -0.328903 0.83742
                  }
                }
              }
              JOINT rRing1
              {
                OFFSET -8.82822 0.546677 1.51678
                CHANNELS 3 Zrotation Xrotation Yrotation
                JOINT rRing2
                {
                  OFFSET -2.60934 -0.819778 -0.0198488
                  CHANNELS 3 Zrotation Xrotation Yrotation
                  End Site
                  {
                    OFFSET -2.33842 -0.294052 0.168128
                  }
                }
              }
              JOINT rPinky1
              {
                OFFSET -8.27202 -0.0477905 -0.4584
                CHANNELS 3 Zrotation Xrotation Yrotation
                JOINT rPinky2
                {
                  OFFSET -1.82734 -0.647385 -0.700984
                  CHANNELS 3 Zrotation Xrotation Yrotation
                  End Site
                  {
                    OFFSET -1.69225 -0.51767 -0.607171
                  }
                }
              }
            }
          }
        }
      }
      JOINT lCollar
      {
        OFFSET 2.68224 19.2634 -4.8768
        CHANNELS 3 Zrotation Xrotation Yrotation
        JOINT lShldr
        {
          OFFSET 8.77824 -1.95073 1.46304
          CHANNELS 3 Zrotation Xrotation Yrotation
          JOINT lForeArm
          {
            OFFSET 28.1742 -1.7115 0.48768
            CHANNELS 3 Zrotation Xrotation Yrotation
            JOINT lHand
            {
              OFFSET 22.5879 0.773209 7.07136
              CHANNELS 3 Zrotation Xrotation Yrotation
              JOINT lThumb1
              {
                OFFSET 1.2192 -0.487915 3.41376
                CHANNELS 3 Zrotation Xrotation Yrotation
                JOINT lThumb2
                {
                  OFFSET 3.37035 -0.52449 3.41376
                  CHANNELS 3 Zrotation Xrotation Yrotation
                  End Site
                  {
                    OFFSET 1.78271 -1.18214 1.43049
                  }
                }
              }
              JOINT lIndex1
              {
                OFFSET 7.75947 0.938293 5.60832
                CHANNELS 3 Zrotation Xrotation Yrotation
                JOINT lIndex2
                {
                  OFFSET 2.54057 -0.884171 1.56538
                  CHANNELS 3 Zrotation Xrotation Yrotation
                  End Site
                  {
                    OFFSET 1.62519 -0.234802 1.16502
                  }
                }
              }
              JOINT lMid1
              {
                OFFSET 8.24714 1.18213 3.41376
                CHANNELS 3 Zrotation Xrotation Yrotation
                JOINT lMid2
                {
                  OFFSET 3.10165 -0.590103 1.0647
                  CHANNELS 3 Zrotation Xrotation Yrotation
                  End Site
                  {
                    OFFSET 2.48547 -0.328903 0.83742
                  }
                }
              }
              JOINT lRing1
              {
                OFFSET 8.82822 0.546677 1.51678
                CHANNELS 3 Zrotation Xrotation Yrotation
                JOINT lRing2
                {
                  OFFSET 2.60934 -0.819778 -0.0198488
                  CHANNELS 3 Zrotation Xrotation Yrotation
                  End Site
                  {
                    OFFSET 2.33842 -0.294052 0.168128
                  }
                }
              }
              JOINT lPinky1
              {
                OFFSET 8.27202 -0.0477905 -0.4584
                CHANNELS 3 Zrotation Xrotation Yrotation
                JOINT lPinky2
                {
                  OFFSET 1.82734 -0.647385 -0.700984
                  CHANNELS 3 Zrotation Xrotation Yrotation
                  End Site
                  {
                    OFFSET 1.69225 -0.51767 -0.607171
                  }
                }
              }
            }
          }
        }
      }
    }
  }
  JOINT rButtock
  {
    OFFSET -8.77824 4.35084 1.2192
    CHANNELS 3 Zrotation Xrotation Yrotation
    JOINT rThigh
    {
      OFFSET 0 -1.70687 -2.19456
      CHANNELS 3 Zrotation Xrotation Yrotation
      JOINT rShin
      {
        OFFSET 0 -36.8199 0.73152
        CHANNELS 3 Zrotation Xrotation Yrotation
        JOINT rFoot
        {
          OFFSET 0.73152 -45.1104 -5.12064
          CHANNELS 3 Zrotation Xrotation Yrotation
          End Site
          {
            OFFSET -1.1221 -3.69964 12.103
          }
        }
      }
    }
  }
  JOINT lButtock
  {
    OFFSET 8.77824 4.35084 1.2192
    CHANNELS 3 Zrotation Xrotation Yrotation
    JOINT lThigh
    {
      OFFSET 0 -1.70687 -2.19456
      CHANNELS 3 Zrotation Xrotation Yrotation
      JOINT lShin
      {
        OFFSET 0 -36.8199 0.73152
        CHANNELS 3 Zrotation Xrotation Yrotation
        JOINT lFoot
        {
          OFFSET -0.73152 -45.1104 -5.12064
          CHANNELS 3 Zrotation Xrotation Yrotation
          End Site
          {
            OFFSET 1.1221 -3.69964 12.103
          }
        }
      }
    }
  }
}
MOTION
Frames:	4
Frame Time:	0.00833333
-33.0738 85.1932 212.286 0.0 0.0 0.0 0.57286 -0.00324248 0.0163891 0.158163 -0.00505494 0.0274048 -4.96279e-15 -1.59028e-15 3.04389e-16 -1.48064e-14 3.18055e-15 8.75895e-16 -0.0 0.0 0.0 -0.0 0.0 0.0 -2.58566e-15 -8.3474e-18 2.98177e-16 -5.01325e-14 -2.85753e-16 3.57812e-15 -9.07551e-13 2.63787e-13 5.725e-14 -1.04023e-11 -3.06228e-13 5.69319e-13 -2.45363e-11 -9.11343e-14 1.37718e-12 -4.23813e-11 -1.55847e-13 2.36236e-12 -2.45292e-11 -8.66701e-14 1.36446e-12 7.73091 5.47488 0.417314 -2.45341e-11 -9.0447e-14 1.37718e-12 2.90554 0.965183 0.102902 -2.45221e-11 -9.02482e-14 1.3732e-12 10.2786 0.731801 0.0259123 -2.45362e-11 -9.26337e-14 1.37718e-12 2.22167 -0.733487 -0.20892 -2.5829e-15 -9.70628e-18 0.0 -5.56523e-14 -2.79541e-16 1.78906e-15 -9.10434e-13 -2.7472e-13 6.04305e-14 -1.04061e-11 2.41971e-13 5.7568e-13 -2.45494e-11 -7.25131e-14 1.36446e-12 -4.23892e-11 -1.20861e-13 2.37667e-12 -2.45563e-11 -6.91771e-14 1.38036e-12 -7.73091 5.47488 -0.417314 -2.45506e-11 -7.196e-14 1.36446e-12 -2.90554 0.965183 -0.102902 -2.45671e-11 -7.15625e-14 1.37241e-12 -10.2786 0.731801 -0.0259123 -2.45507e-11 -7.27552e-14 1.374e-12 -2.22167 -0.733487 0.20892 -2.03217e-16 0.0 -3.88251e-19 0.920469 -4.54482 -0.0776214 -0.00189523 2.68069 -0.00763538 -0.489916 1.86451 0.093656 2.03217e-16 0.0 3.88251e-19 -0.0476979 -2.33549 0.0218147 0.00803132 -1.3211 0.0687456 0.481251 3.65688 -0.128855
-38.0715 83.3559 203.855 -138.662 -82.4161 151.786 1.60399 -5.68491 1.69937 -0.301736 0.576141 0.41849 -7.8525 9.55232 -2.33959 20.0976 -8.80062 -3.47345 -0.0 0.0 0.0 -0.0 0.0 0.0 -3.82936e-14 -2.16457e-13 1.16009e-14 22.8702 12.7114 0.243833 -4.21277 -1.91116 6.58156 0.0664698 5.72422 0.790057 -2.04322e-10 2.67285e-11 -2.59681e-10 -3.57765e-10 4.67869e-11 -4.4499e-10 -2.04316e-10 2.67305e-11 -2.59693e-10 7.73091 5.47488 0.417314 -2.0432e-10 2.6728e-11 -2.59682e-10 2.90554 0.965183 0.102902 -2.0431e-10 2.67282e-11 -2.59685e-10 10.2786 0.731801 0.0259123 -2.04323e-10 2.67269e-11 -2.59681e-10 2.22167 -0.733487 -0.20892 -3.83186e-14 -2.16458e-13 1.12721e-14 -21.6111 10.6441 1.72804 5.08037 -2.51026 -7.70366 -0.372537 -13.6125 1.72389 -2.37804e-10 4.85928e-11 2.36909e-10 -4.18625e-10 8.29781e-11 3.99635e-10 -2.37809e-10 4.85959e-11 2.36925e-10 -7.73091 5.47488 -0.417314 -2.37804e-10 4.85947e-11 2.36913e-10 -2.90554 0.965183 -0.102902 -2.37817e-10 4.85945e-11 2.36916e-10 -10.2786 0.731801 -0.0259123 -2.37803e-10 4.85951e-11 2.36916e-10 -2.22167 -0.733487 0.20892 -2.03217e-16 0.0 -3.88251e-19 -4.6434 -4.93035 -0.0934494 0.000761867 3.3641 0.0156722 -0.517753 1.56287 0.0908498 2.03217e-16 0.0 3.88251e-19 1.40714 -6.80433 1.78592 0.00621627 2.82827 -0.0208143 0.470218 0.0536807 -1.41443
-38.072 83.3567 203.86 -138.76 -82.432 151.883 3.06365 -11.6747 3.53409 -0.794935 1.19304 0.831973 -15.2575 19.5958 -5.0396 40.1308 -17.9968 -7.42613 -0.0 0.0 0.0 -0.0 0.0 0.0 -7.82352e-14 -4.95039e-13 2.31336e-14 46.915 26.1485 0.547718 -8.19235 -3.8477 13.5628 -0.0382494 11.7714 1.65183 -4.15187e-10 4.8272e-11 -5.5289e-10 -7.27392e-10 8.46743e-11 -9.47295e-10 -4.15182e-10 4.82713e-11 -5.52901e-10 7.73091 5.47488 0.417314 -4.15185e-10 4.82703e-11 -5.52892e-10 2.90554 0.965183 0.102902 -4.15177e-10 4.82704e-11 -5.52894e-10 10.2786 0.731801 0.0259123 -4.15189e-10 4.82703e-11 -5.52888e-10 2.22167 -0.733487 -0.20892 -7.82881e-14 -4.9504e-13 2.27702e-14 -45.2043 21.8631 3.76211 9.72346 -5.01225 -15.8937 0.230724 -27.9551 3.9021 -4.86255e-10 1.00239e-10 4.93136e-10 -8.56315e-10 1.70578e-10 8.31173e-10 -4.86258e-10 1.00241e-10 4.93151e-10 -7.73091 5.47488 -0.417314 -4.86254e-10 1.00242e-10 4.93143e-10 -2.90554 0.965183 -0.102902 -4.86264e-10 1.00241e-10 4.93142e-10 -10.2786 0.731801 -0.0259123 -4.86252e-10 1.00244e-10 4.9314e-10 -2.22167 -0.733487 0.20892 -2.03217e-16 0.0 -3.88251e-19 -10.5254 -5.33789 -0.110206 0.00296437 4.08655 0.0403473 -0.547216 1.24401 0.0878873 2.03217e-16 0.0 3.88251e-19 3.2503 -11.5113 3.69955 0.0184344 7.21457 -0.11643 0.282563 -3.75096 -2.77928
-38.073 83.3573 203.855 -138.712 -82.4115 151.829 4.70505 -16.9877 5.27084 -1.24534 1.7382 1.20115 -20.9513 28.4523 -7.87792 56.8069 -25.9915 -11.4711 -0.0 0.0 0.0 -0.0 0.0 0.0 -1.0971e-13 -6.49355e-13 3.42065e-14 68.2113 38.1311 0.90717 -11.3451 -5.4315 19.8264 -0.2928 17.1593 2.46828 -5.63894e-10 8.03677e-11 -7.81799e-10 -9.88531e-10 1.40673e-10 -1.3397e-09 -5.6389e-10 8.03648e-11 -7.81809e-10 7.73091 5.47488 0.417314 -5.63893e-10 8.03649e-11 -7.81801e-10 2.90554 0.965183 0.102902 -5.63886e-10 8.03651e-11 -7.81803e-10 10.2786 0.731801 0.0259123 -5.63897e-10 8.03659e-11 -7.81796e-10 2.22167 -0.733487 -0.20892 -1.0979e-13 -6.49355e-13 3.38163e-14 -67.0451 31.8054 5.99817 13.2645 -6.98739 -23.2716 1.99811 -40.665 6.63271 -6.64312e-10 1.45924e-10 7.08e-10 -1.1711e-09 2.49176e-10 1.19415e-09 -6.64314e-10 1.45926e-10 7.08013e-10 -7.73091 5.47488 -0.417314 -6.6431e-10 1.45928e-10 7.08009e-10 -2.90554 0.965183 -0.102902 -6.64318e-10 1.45927e-10 7.08005e-10 -10.2786 0.731801 -0.0259123 -6.64308e-10 1.45931e-10 7.08001e-10 -2.22167 -0.733487 0.20892 -2.03217e-16 0.0 -3.88251e-19 -15.7718 -5.70139 -0.125175 0.00440252 4.73093 0.0624024 -0.573518 0.9596 0.0852472 2.03217e-16 0.0 3.88251e-19 5.16945 -15.6834 5.48107 0.0419761 11.1269 -0.20365 -0.0391914 -7.13529 -4.01728
